<?xml version="1.0" encoding="UTF-8"?>
<svg width="128" height="128" viewBox="0 0 128 128" xmlns="http://www.w3.org/2000/svg">
  <!-- Background -->
  <rect width="128" height="128" fill="#2c3e50"/>
  
  <!-- Map/Blueprint background -->
  <rect x="20" y="20" width="88" height="88" fill="#34495e" rx="4"/>
  
  <!-- Grid lines -->
  <line x1="20" y1="54" x2="108" y2="54" stroke="#7f8c8d" stroke-width="0.5" opacity="0.3"/>
  <line x1="20" y1="74" x2="108" y2="74" stroke="#7f8c8d" stroke-width="0.5" opacity="0.3"/>
  <line x1="54" y1="20" x2="54" y2="108" stroke="#7f8c8d" stroke-width="0.5" opacity="0.3"/>
  <line x1="74" y1="20" x2="74" y2="108" stroke="#7f8c8d" stroke-width="0.5" opacity="0.3"/>
  
  <!-- Polygon 1 -->
  <polygon points="30,35 50,35 50,55 30,55" fill="#3498db" opacity="0.6" stroke="#2980b9" stroke-width="2"/>
  
  <!-- Polygon 2 -->
  <polygon points="60,35 85,35 85,60 60,60" fill="#e74c3c" opacity="0.6" stroke="#c0392b" stroke-width="2"/>
  
  <!-- Polygon 3 -->
  <polygon points="30,70 55,70 55,95 30,95" fill="#2ecc71" opacity="0.6" stroke="#27ae60" stroke-width="2"/>
  
  <!-- Polygon 4 (irregular) -->
  <polygon points="65,75 90,70 95,90 70,95" fill="#f39c12" opacity="0.6" stroke="#d68910" stroke-width="2"/>
  
  <!-- Pencil/Draw icon -->
  <g transform="translate(85, 85)">
    <rect x="0" y="0" width="30" height="30" fill="#ecf0f1" rx="15"/>
    <path d="M 8 22 L 12 18 L 18 24 L 14 28 Z" fill="#3498db"/>
    <path d="M 12 18 L 20 10 L 22 12 L 14 20 Z" fill="#2980b9"/>
    <circle cx="21" cy="9" r="2" fill="#e74c3c"/>
  </g>
</svg>
