<svg xmlns="http://www.w3.org/2000/svg" viewBox="0 0 64 64" width="64" height="64">
  <!-- Background circle -->
  <circle cx="32" cy="32" r="30" fill="#27ae60"/>
  
  <!-- Map/Location icon -->
  <g fill="#ffffff">
    <!-- Map pin -->
    <path d="M32 14 C26 14 21 19 21 25 C21 33 32 46 32 46 C32 46 43 33 43 25 C43 19 38 14 32 14 Z"/>
    
    <!-- Inner circle -->
    <circle cx="32" cy="25" r="4" fill="#27ae60"/>
    
    <!-- Map lines -->
    <path d="M16 36 L20 34 L24 36 L28 34 L32 36 L36 34 L40 36 L44 34 L48 36" 
          stroke="#ffffff" stroke-width="2" fill="none" opacity="0.7"/>
    <path d="M16 42 L20 40 L24 42 L28 40 L32 42 L36 40 L40 42 L44 40 L48 42" 
          stroke="#ffffff" stroke-width="2" fill="none" opacity="0.7"/>
  </g>
</svg>
